PathFileType	4	(X/Y/Z)	E:\Qualisys_Data\Carbon_Farble_Plate\Data\Amateur_Runner\S1\T3\S1T3V21_c3d.trc
DataRate	CameraRate	NumFrames	NumMarkers	Units	OrigDataRate	OrigDataStartFrame	OrigNumFrames
200.000000	200.000000	5	39	mm	200.000000	186	298
Frame#	Time	LSHO			RSHO			LICST			RICST			LASIS			LHEEL			RASIS			LTROC			RTROC			SACR			LTH1			LSK4			LTH2			LTH3			RHM5			LSK2			LTH4			RTH1			LTOE			RTH2			RTH3			RTH4			LLEP			RLEP			LSK1			LSK3			RSK1			LHM5			RSK2			LFT1			RSK3			RSK4			LLME			RLME			RTOE			RHEEL			RFT1			RFT2			LFT2			
		X1	Y1	Z1	X2	Y2	Z2	X3	Y3	Z3	X4	Y4	Z4	X5	Y5	Z5	X6	Y6	Z6	X7	Y7	Z7	X8	Y8	Z8	X9	Y9	Z9	X10	Y10	Z10	X11	Y11	Z11	X12	Y12	Z12	X13	Y13	Z13	X14	Y14	Z14	X15	Y15	Z15	X16	Y16	Z16	X17	Y17	Z17	X18	Y18	Z18	X19	Y19	Z19	X20	Y20	Z20	X21	Y21	Z21	X22	Y22	Z22	X23	Y23	Z23	X24	Y24	Z24	X25	Y25	Z25	X26	Y26	Z26	X27	Y27	Z27	X28	Y28	Z28	X29	Y29	Z29	X30	Y30	Z30	X31	Y31	Z31	X32	Y32	Z32	X33	Y33	Z33	X34	Y34	Z34	X35	Y35	Z35	X36	Y36	Z36	X37	Y37	Z37	X38	Y38	Z38	X39	Y39	Z39	

187	0.93	808.859375	1514.94580078125	-542.1976318359375	857.1727905273438	1490.437377929688	-219.7971954345703	809.8235473632812	1040.248657226562	-515.9370727539062	817.8345947265625	1048.286743164062	-217.7112274169922	854.8925170898438	1001.704162597656	-488.985595703125	693.5275268554688	336.0463562011719	-429.9705810546875	852.6538696289062	996.6014404296876	-226.5058746337891	768.0847778320312	918.4866943359376	-540.7969970703125	728.5512084960938	922.2578735351562	-201.22607421875	695.7447509765625	1060.03662109375	-362.0872192382812	958.6344604492188	859.7649536132812	-501.9219360351562	810.6687622070312	448.4859619140625	-458.7652893066406	903.6871948242188	805.192626953125	-539.5758666992188	1026.45263671875	780.9514770507812	-493.9732971191406	507.2685241699219	63.98548889160156	-242.3919525146484	884.0814819335938	513.6981201171875	-493.1607360839844	965.5161743164062	727.38671875	-522.831298828125	819.5584716796875	770.2880859375	-225.0679626464844	887.0589599609375	174.6896057128906	-433.9688720703125	747.281005859375	788.0689697265625	-194.2292022705078	790.2656860351562	673.4832153320312	-237.4161529541016	715.278076171875	694.4513549804688	-213.1359252929688	1062.588623046875	619.7910766601562	-486.9104919433594	686.2940063476562	525.2469482421875	-255.1168365478516	938.4987182617188	450.1978149414062	-486.36865234375	860.0020751953125	387.537841796875	-482.2202758789062	581.7651977539062	363.7105102539062	-237.7990264892578	818.0411987304688	199.716796875	-492.5664978027344	513.6407470703125	407.9284362792969	-246.0414276123047	685.0077514648438	308.8399047851562	-398.647705078125	529.9312133789062	278.3034973144531	-248.4015197753906	463.9710998535156	323.1025695800781	-270.1314697265625	752.9805297851562	324.634765625	-475.2943420410156	429.5237121582031	185.1392669677734	-248.9368743896484	559.7775268554688	54.13278198242188	-316.826171875	338.2943115234375	165.2892150878906	-296.463623046875	337.6190795898438	137.5774688720703	-326.3977355957031	331.4476318359375	142.1027374267578	-275.4562072753906	679.0548706054688	306.4958190917969	-448.7490539550781
188	0.935	827.272705078125	1518.385620117188	-542.8643798828125	878.6481323242188	1495.141967773438	-221.0811462402344	830.7393798828125	1044.161376953125	-516.8746948242188	839.9356079101562	1051.214477539062	-218.6252899169922	875.9873046875	1006.809509277344	-489.9483642578125	729.1640625	323.44873046875	-430.28662109375	874.5758666992188	999.7362670898438	-227.3097534179688	790.724365234375	923.53955078125	-541.6694946289062	749.5762329101562	926.7454223632812	-201.8718566894531	718.004638671875	1064.311645507812	-362.6145629882812	981.2789306640624	864.97412109375	-501.1319885253906	840.69287109375	440.8491516113281	-458.9964599609375	927.059814453125	810.3992919921875	-539.2850341796875	1049.36865234375	786.4198608398438	-492.9932556152344	510.5775756835938	65.07520294189453	-242.2472991943359	910.8904418945312	509.7533569335938	-493.6720275878906	988.8309326171876	732.56396484375	-522.5706176757812	837.5923461914062	773.32421875	-225.3934936523438	929.6573486328124	171.3191070556641	-434.53173828125	765.5514526367188	792.92041015625	-194.7885284423828	806.0103149414062	677.3674926757812	-237.6553649902344	731.6060180664062	700.05126953125	-213.4519805908203	1084.82080078125	625.0442504882812	-486.3730163574219	698.1681518554688	531.2976684570312	-254.682373046875	968.6243286132812	449.23193359375	-486.4905090332031	892.96923828125	382.3086853027344	-482.0512084960938	591.9080200195312	370.8384399414062	-236.7295837402344	859.9835815429688	193.2771453857422	-493.2845458984375	524.0142211914062	415.4744873046875	-245.6810302734375	722.1432495117188	295.6203918457031	-399.3465270996094	539.6228637695312	285.5560913085938	-246.6585845947266	474.5470275878906	330.3386840820312	-269.5455627441406	789.1356811523438	315.0431518554688	-475.9678344726562	438.8243103027344	191.9000091552734	-248.0803070068359	562.3897094726562	53.13252258300781	-315.8535461425781	348.711181640625	176.8811187744141	-296.4921569824219	347.1929931640625	150.1265563964844	-326.8042297363281	340.8742065429688	153.6567687988281	-276.9559936523438	715.799560546875	294.0334777832031	-449.73779296875
189	0.94	845.7617797851562	1521.744384765625	-543.3800659179688	900.1975708007812	1499.946655273438	-222.4679412841797	856.400390625	1049.405883789062	-515.885498046875	862.4420166015625	1054.568237304688	-219.7816619873047	898.2655639648438	1010.708618164062	-490.6289367675781	765.6822509765625	311.0684204101562	-430.88623046875	896.6307373046875	1002.457641601562	-227.5764312744141	813.3949584960938	928.314697265625	-542.5829467773438	770.68310546875	931.2910766601562	-202.6950988769531	739.8004760742188	1068.575805664062	-363.3514709472656	1004.058288574219	869.7733764648438	-500.4955139160156	870.7809448242188	433.4559020996094	-459.3172302246094	949.7810668945312	815.6029052734375	-539.845703125	1071.85791015625	791.234375	-491.9686889648438	514.2338256835938	64.05957794189453	-243.9088745117188	936.8480224609376	506.0448303222656	-494.5638122558594	1011.513366699219	737.3443603515625	-522.2291870117188	855.8150024414062	775.8790283203125	-225.6163635253906	972.5879516601562	167.9598693847656	-435.2214050292969	784.2158203125	797.4510498046875	-195.1301727294922	821.7529907226562	680.84716796875	-237.8548583984375	748.1484375	705.4592895507812	-213.5262145996094	1106.835205078125	629.1643676757812	-486.0906982421875	710.341796875	537.6948852539062	-253.8589172363281	998.234375	447.8569946289062	-487.0470275878906	925.7821655273438	377.6226806640625	-482.4130554199219	602.8975219726562	378.1889038085938	-235.0457305908203	902.2554321289062	187.2450103759766	-494.1395874023438	534.8499755859375	422.7082214355469	-245.4977111816406	759.0916137695312	282.7508239746094	-400.4531860351562	550.7938842773438	292.8343505859375	-244.8345336914062	485.5149841308594	336.9964599609375	-269.6258239746094	825.7200927734375	305.2223205566406	-476.2814636230469	449.939453125	198.4768829345703	-246.8368682861328	565.5274047851562	51.88841247558594	-315.2514343261719	362.5291442871094	189.1297760009766	-296.5547790527344	357.8513488769531	162.8244934082031	-326.857666015625	351.3866577148438	165.4087066650391	-276.9104614257812	753.176025390625	280.7557373046875	-450.5350341796875
190	0.945	864.4519653320312	1525.124633789062	-543.6771240234375	921.684326171875	1504.462768554688	-223.7848205566406	875.9185180664062	1053.71923828125	-517.3015747070312	884.5650024414062	1057.354736328125	-220.2277526855469	920.5265502929688	1014.844665527344	-490.9883728027344	802.3576049804688	298.69091796875	-431.44140625	918.5916137695312	1005.393798828125	-228.3377227783203	835.9407958984375	932.8629760742188	-543.939208984375	791.4903564453125	935.3456420898438	-203.3778076171875	762.0733032226562	1072.39306640625	-363.9515380859375	1026.2568359375	874.302734375	-499.9132080078125	901.4657592773438	425.87353515625	-459.8911437988281	972.4013671875	820.1110229492188	-539.6212768554688	1094.074096679688	795.5888671875	-491.3903503417969	517.8644409179688	66.85169219970703	-241.7871398925781	964.1469116210938	501.3863525390625	-495.2305603027344	1033.72021484375	741.9528198242188	-521.4893798828125	874.1980590820312	779.3099975585938	-225.1373901367188	1015.575378417969	165.48095703125	-435.9158935546875	803.0401611328125	802.1444091796875	-195.6751708984375	838.24169921875	684.7025146484375	-237.9889068603516	764.8533935546875	710.8616333007812	-213.3089141845703	1128.572021484375	632.7182006835938	-485.5748596191406	722.9658813476562	543.72412109375	-253.3688049316406	1027.812377929688	446.0970764160156	-486.3163757324219	958.54248046875	372.8838195800781	-482.81591796875	614.3771362304688	385.1413269042969	-233.9164123535156	944.36279296875	181.4417572021484	-494.9440002441406	546.2950439453125	429.5987548828125	-245.0619049072266	796.0433349609375	269.7212219238281	-401.2344055175781	562.1991577148438	299.5345458984375	-243.5542144775391	497.3786315917969	343.8511657714844	-268.8749084472656	862.3284301757812	295.9579162597656	-477.2380065917969	461.7034606933594	204.7214660644531	-245.6429290771484	569.4814453125	51.06216430664062	-314.64599609375	375.2813415527344	200.9492645263672	-295.9847412109375	369.4073791503906	175.0258331298828	-326.7933654785156	362.4976806640625	178.8442230224609	-276.0292053222656	790.6565551757812	268.2928466796875	-451.9286499023438
191	0.95	883.0572509765625	1528.11865234375	-544.4528198242188	942.9915771484376	1508.67041015625	-225.2510833740234	898.5985717773438	1057.693359375	-517.82470703125	906.5819091796876	1060.365600585938	-220.9941253662109	942.4006958007812	1018.143005371094	-491.6003112792969	838.78076171875	285.9696350097656	-431.9610900878906	940.3324584960938	1008.267700195312	-229.13671875	858.3781127929688	937.212158203125	-544.20751953125	812.4573974609375	939.6154174804688	-203.893798828125	784.215576171875	1076.079833984375	-364.678955078125	1048.33837890625	878.474609375	-499.9006652832031	931.5070190429688	417.8944091796875	-460.5086669921875	994.7050170898438	824.3323974609375	-539.5712890625	1115.755737304688	799.2947387695312	-490.7691650390625	522.6101684570312	68.82296752929688	-241.2784729003906	990.735595703125	496.5417785644531	-495.9812316894531	1055.610961914062	745.919189453125	-520.8460693359375	892.2590942382812	782.0985717773438	-224.6591491699219	1057.901489257812	162.9019317626953	-436.5141296386719	821.7028198242188	806.74853515625	-196.0317230224609	854.5114135742188	688.5990600585938	-237.0952911376953	781.8911743164062	716.4715576171875	-213.2012481689453	1149.867797851562	636.0942993164062	-485.2242126464844	736.1179809570312	549.9959106445312	-252.5978546142578	1057.362426757812	444.548583984375	-486.5495910644531	991.4574584960938	367.9239196777344	-482.8095092773438	626.4733276367188	392.3654174804688	-232.312255859375	986.5078125	176.1869354248047	-495.8912048339844	558.4244384765625	436.4498291015625	-244.628662109375	834.0941772460938	257.0630798339844	-401.8766784667969	574.194580078125	306.7229614257812	-241.8277435302734	509.8056945800781	350.5364685058594	-268.1463012695312	899.0551147460938	286.5043640136719	-477.489990234375	474.4329833984375	211.0149230957031	-244.7334747314453	574.0287475585938	49.90180969238281	-314.1573181152344	389.7611083984375	213.1978454589844	-295.8295593261719	381.8006896972656	187.5707397460938	-326.6216125488281	375.0546264648438	191.9201507568359	-275.8162231445312	829.2235717773438	255.0924224853516	-452.8621826171875
